<?xml version="1.0" encoding="utf-8"?>
<!-- Svg Vector Icons : http://www.onlinewebfonts.com/icon -->
<!DOCTYPE svg PUBLIC "-//W3C//DTD SVG 1.1//EN" "http://www.w3.org/Graphics/SVG/1.1/DTD/svg11.dtd">
<svg version="1.1" xmlns="http://www.w3.org/2000/svg" xmlns:xlink="http://www.w3.org/1999/xlink" x="0px" y="0px" viewBox="0 0 1000 1000" enable-background="new 0 0 1000 1000" xml:space="preserve">
<metadata> Svg Vector Icons : http://www.onlinewebfonts.com/icon </metadata>
<g fill="white"><path d="M988.2,445.5C971.3,234.3,797.8,36.6,559.3,11.4C221.5-24.2-11.3,247.8,11.5,543.7c9.1,117.5,48.6,245.9,175,267.6c0.1-0.1,0.2-0.1,0.3-0.2c1.9,0.4,3.6,1,5.5,1.3c-0.1-1.5-0.6-2.7-0.7-4.1c17.5-16.4-36.3-70.3-60.6-109.6c-2-3.4-4.1-6.8-5.9-10.3C-21.7,393.9,213,72.5,507.6,78.6C745.3,83.6,904.4,264.7,921,466.2c20.2,246.2-161.9,436.2-387.5,454.7c-120.2,9.9-242.1-11.1-242.9-134.4c16.8-18.7,43.9-9.7,67.2-25.8c27.3-18.9,66.6-84.6,67.2-113.7c0.5-26.4-22.2-49.6-20.7-77.5c5.8-102.9,94-235.7,186-253.2c15.4-44.9,34.2-86.4,31-149.9c-121.9-53-195.2,85.1-248,170.5c-69.8,112.9-141.5,259.2-113.7,403c-118.7,176.4,105.4,272.1,315.2,248C822.4,959.6,1010.8,728.2,988.2,445.5z"/><path d="M673,342.1c22.4-32.7,40.2-70.1,36.2-129.2c-12.5-16.7-26.6-31.9-51.7-36.2c3.2,56.6-35.1,134.5-51.7,170.5C629.6,347,656.3,349.6,673,342.1z"/><path d="M357.7,802.1c76.3,45,117.5-37.1,134.4-98.3c-12.3-18.6-17-45-41.3-51.6C435.7,718.2,392.1,755.5,357.7,802.1z"/></g>
</svg>